# Blender 4.4.0
# www.blender.org
o Cylinder
v 0.000000 -0.500000 -0.250000
v 0.000000 0.500000 -0.250000
v 0.077254 -0.500000 -0.237764
v 0.077254 0.500000 -0.237764
v 0.146946 -0.500000 -0.202254
v 0.146946 0.500000 -0.202254
v 0.202254 -0.500000 -0.146946
v 0.202254 0.500000 -0.146946
v 0.237764 -0.500000 -0.077254
v 0.237764 0.500000 -0.077254
v 0.250000 -0.500000 0.000000
v 0.250000 0.500000 0.000000
v 0.237764 -0.500000 0.077254
v 0.237764 0.500000 0.077254
v 0.202254 -0.500000 0.146946
v 0.202254 0.500000 0.146946
v 0.146946 -0.500000 0.202254
v 0.146946 0.500000 0.202254
v 0.077254 -0.500000 0.237764
v 0.077254 0.500000 0.237764
v 0.000000 -0.500000 0.250000
v 0.000000 0.500000 0.250000
v -0.077254 -0.500000 0.237764
v -0.077254 0.500000 0.237764
v -0.146946 -0.500000 0.202254
v -0.146946 0.500000 0.202254
v -0.202254 -0.500000 0.146946
v -0.202254 0.500000 0.146946
v -0.237764 -0.500000 0.077254
v -0.237764 0.500000 0.077254
v -0.250000 -0.500000 0.000000
v -0.250000 0.500000 0.000000
v -0.237764 -0.500000 -0.077254
v -0.237764 0.500000 -0.077254
v -0.202254 -0.500000 -0.146946
v -0.202254 0.500000 -0.146946
v -0.146946 -0.500000 -0.202254
v -0.146946 0.500000 -0.202254
v -0.077254 -0.500000 -0.237764
v -0.077254 0.500000 -0.237764
vn -0.0000 -0.6735 -0.7392
vn -0.0000 0.6735 -0.7392
vn 0.2284 -0.6735 -0.7030
vn 0.2284 0.6735 -0.7030
vn 0.4345 -0.6735 -0.5980
vn 0.4345 0.6735 -0.5980
vn 0.5980 -0.6735 -0.4345
vn 0.5980 0.6735 -0.4345
vn 0.7030 -0.6735 -0.2284
vn 0.7030 0.6735 -0.2284
vn 0.7392 -0.6735 -0.0000
vn 0.7392 0.6735 -0.0000
vn 0.7030 -0.6735 0.2284
vn 0.7030 0.6735 0.2284
vn 0.5980 -0.6735 0.4345
vn 0.5980 0.6735 0.4345
vn 0.4345 -0.6735 0.5980
vn 0.4345 0.6735 0.5980
vn 0.2284 -0.6735 0.7030
vn 0.2284 0.6735 0.7030
vn -0.0000 -0.6735 0.7392
vn -0.0000 0.6735 0.7392
vn -0.2284 -0.6735 0.7030
vn -0.2284 0.6735 0.7030
vn -0.4345 -0.6735 0.5980
vn -0.4345 0.6735 0.5980
vn -0.5980 -0.6735 0.4345
vn -0.5980 0.6735 0.4345
vn -0.7030 -0.6735 0.2284
vn -0.7030 0.6735 0.2284
vn -0.7392 -0.6735 -0.0000
vn -0.7392 0.6735 -0.0000
vn -0.7030 -0.6735 -0.2284
vn -0.7030 0.6735 -0.2284
vn -0.5980 -0.6735 -0.4345
vn -0.5980 0.6735 -0.4345
vn -0.4345 -0.6735 -0.5980
vn -0.4345 0.6735 -0.5980
vn -0.2284 -0.6735 -0.7030
vn -0.2284 0.6735 -0.7030
vt 1.000000 1.000000
vt 0.950000 0.500000
vt 1.000000 0.500000
vt 0.950000 1.000000
vt 0.900000 0.500000
vt 0.900000 1.000000
vt 0.850000 0.500000
vt 0.850000 1.000000
vt 0.800000 0.500000
vt 0.800000 1.000000
vt 0.750000 0.500000
vt 0.750000 1.000000
vt 0.700000 0.500000
vt 0.700000 1.000000
vt 0.650000 0.500000
vt 0.650000 1.000000
vt 0.600000 0.500000
vt 0.600000 1.000000
vt 0.550000 0.500000
vt 0.550000 1.000000
vt 0.500000 0.500000
vt 0.500000 1.000000
vt 0.450000 0.500000
vt 0.450000 1.000000
vt 0.400000 0.500000
vt 0.400000 1.000000
vt 0.350000 0.500000
vt 0.350000 1.000000
vt 0.300000 0.500000
vt 0.300000 1.000000
vt 0.250000 0.500000
vt 0.250000 1.000000
vt 0.200000 0.500000
vt 0.200000 1.000000
vt 0.150000 0.500000
vt 0.150000 1.000000
vt 0.100000 0.500000
vt 0.021746 0.175836
vt 0.478254 0.175836
vt 0.391068 0.444164
vt 0.100000 1.000000
vt 0.050000 0.500000
vt 0.050000 1.000000
vt -0.000000 0.500000
vt 0.944164 0.108932
vt 0.510000 0.250000
vt 0.675836 0.478254
vt 0.324164 0.478254
vt 0.250000 0.490000
vt 0.175836 0.478254
vt 0.108932 0.444164
vt 0.055836 0.391068
vt 0.021746 0.324164
vt 0.010000 0.250000
vt 0.055836 0.108932
vt 0.108932 0.055836
vt 0.175836 0.021746
vt 0.250000 0.010000
vt 0.324164 0.021746
vt 0.391068 0.055836
vt 0.444164 0.108932
vt 0.490000 0.250000
vt 0.478254 0.324164
vt 0.444164 0.391068
vt -0.000000 1.000000
vt 0.750000 0.490000
vt 0.824164 0.478254
vt 0.891068 0.444164
vt 0.944164 0.391068
vt 0.978254 0.324164
vt 0.990000 0.250000
vt 0.978254 0.175836
vt 0.891068 0.055836
vt 0.824164 0.021746
vt 0.750000 0.010000
vt 0.675836 0.021746
vt 0.608932 0.055836
vt 0.555836 0.108932
vt 0.521746 0.175836
vt 0.521746 0.324164
vt 0.555836 0.391068
vt 0.608932 0.444164
s 1
f 2/1/2 3/2/3 1/3/1
f 4/4/4 5/5/5 3/2/3
f 6/6/6 7/7/7 5/5/5
f 8/8/8 9/9/9 7/7/7
f 10/10/10 11/11/11 9/9/9
f 12/12/12 13/13/13 11/11/11
f 14/14/14 15/15/15 13/13/13
f 16/16/16 17/17/17 15/15/15
f 18/18/18 19/19/19 17/17/17
f 20/20/20 21/21/21 19/19/19
f 22/22/22 23/23/23 21/21/21
f 24/24/24 25/25/25 23/23/23
f 26/26/26 27/27/27 25/25/25
f 28/28/28 29/29/29 27/27/27
f 30/30/30 31/31/31 29/29/29
f 32/32/32 33/33/33 31/31/31
f 34/34/34 35/35/35 33/33/33
f 36/36/36 37/37/37 35/35/35
f 30/38/30 14/39/14 6/40/6
f 38/41/38 39/42/39 37/37/37
f 40/43/40 1/44/1 39/42/39
f 15/45/15 31/46/31 39/47/39
f 2/1/2 4/4/4 3/2/3
f 4/4/4 6/6/6 5/5/5
f 6/6/6 8/8/8 7/7/7
f 8/8/8 10/10/10 9/9/9
f 10/10/10 12/12/12 11/11/11
f 12/12/12 14/14/14 13/13/13
f 14/14/14 16/16/16 15/15/15
f 16/16/16 18/18/18 17/17/17
f 18/18/18 20/20/20 19/19/19
f 20/20/20 22/22/22 21/21/21
f 22/22/22 24/24/24 23/23/23
f 24/24/24 26/26/26 25/25/25
f 26/26/26 28/28/28 27/27/27
f 28/28/28 30/30/30 29/29/29
f 30/30/30 32/32/32 31/31/31
f 32/32/32 34/34/34 33/33/33
f 34/34/34 36/36/36 35/35/35
f 36/36/36 38/41/38 37/37/37
f 6/40/6 4/48/4 2/49/2
f 2/49/2 40/50/40 38/51/38
f 38/51/38 36/52/36 34/53/34
f 34/53/34 32/54/32 30/38/30
f 30/38/30 28/55/28 26/56/26
f 26/56/26 24/57/24 22/58/22
f 22/58/22 20/59/20 18/60/18
f 18/60/18 16/61/16 14/39/14
f 14/39/14 12/62/12 10/63/10
f 10/63/10 8/64/8 6/40/6
f 6/40/6 2/49/2 38/51/38
f 38/51/38 34/53/34 30/38/30
f 30/38/30 26/56/26 22/58/22
f 22/58/22 18/60/18 14/39/14
f 14/39/14 10/63/10 6/40/6
f 6/40/6 38/51/38 30/38/30
f 30/38/30 22/58/22 14/39/14
f 38/41/38 40/43/40 39/42/39
f 40/43/40 2/65/2 1/44/1
f 39/47/39 1/66/1 3/67/3
f 3/67/3 5/68/5 7/69/7
f 7/69/7 9/70/9 11/71/11
f 11/71/11 13/72/13 15/45/15
f 15/45/15 17/73/17 19/74/19
f 19/74/19 21/75/21 23/76/23
f 23/76/23 25/77/25 27/78/27
f 27/78/27 29/79/29 31/46/31
f 31/46/31 33/80/33 35/81/35
f 35/81/35 37/82/37 39/47/39
f 39/47/39 3/67/3 7/69/7
f 7/69/7 11/71/11 15/45/15
f 15/45/15 19/74/19 23/76/23
f 23/76/23 27/78/27 31/46/31
f 31/46/31 35/81/35 39/47/39
f 39/47/39 7/69/7 15/45/15
f 15/45/15 23/76/23 31/46/31
